<svg xmlns="http://www.w3.org/2000/svg" width="463" height="665" viewBox="0 0 463 665">
<image href="file://7.1 2Д.png" x="0" y="0" width="463" height="665" opacity="0.3"/>
<polyline points="252,30 264,367 180,425 304,333 273,117 355,124 277,88 381,87 406,280 324,283 406,307 303,369 381,378 381,589 114,590 155,471 75,450 220,457 67,437 66,638 434,651 434,95" fill="none" stroke="#000" stroke-width="6" stroke-linejoin="round"/>
<rect x="321" y="641" width="62" height="11" fill="none" stroke="red" stroke-width="2"/>
<text x="323" y="664" font-size="12" fill="red">6.568m</text>
<rect x="216" y="599" width="35" height="14" fill="none" stroke="red" stroke-width="2"/>
<text x="218" y="625" font-size="12" fill="red">3.708m</text>
<rect x="381" y="590" width="26" height="40" fill="none" stroke="red" stroke-width="2"/>
<text x="383" y="642" font-size="12" fill="red">4.237m</text>
<rect x="113" y="590" width="269" height="41" fill="none" stroke="red" stroke-width="2"/>
<text x="115" y="643" font-size="12" fill="red">28.496m</text>
<rect x="95" y="590" width="19" height="40" fill="none" stroke="red" stroke-width="2"/>
<text x="97" y="642" font-size="12" fill="red">4.237m</text>
<rect x="78" y="590" width="18" height="19" fill="none" stroke="red" stroke-width="2"/>
<text x="80" y="621" font-size="12" fill="red">2.013m</text>
<rect x="75" y="547" width="24" height="19" fill="none" stroke="red" stroke-width="2"/>
<text x="77" y="578" font-size="12" fill="red">2.542m</text>
<rect x="98" y="526" width="16" height="65" fill="none" stroke="red" stroke-width="2"/>
<text x="100" y="603" font-size="12" fill="red">6.886m</text>
<rect x="75" y="526" width="18" height="22" fill="none" stroke="red" stroke-width="2"/>
<text x="77" y="560" font-size="12" fill="red">2.331m</text>
<rect x="91" y="508" width="30" height="15" fill="none" stroke="red" stroke-width="2"/>
<text x="93" y="535" font-size="12" fill="red">3.178m</text>
<rect x="75" y="508" width="13" height="18" fill="none" stroke="red" stroke-width="2"/>
<text x="77" y="538" font-size="12" fill="red">1.907m</text>
<rect x="223" y="477" width="28" height="15" fill="none" stroke="red" stroke-width="2"/>
<text x="225" y="504" font-size="12" fill="red">2.966m</text>
<rect x="108" y="477" width="27" height="14" fill="none" stroke="red" stroke-width="2"/>
<text x="110" y="503" font-size="12" fill="red">2.86m</text>
<rect x="324" y="449" width="40" height="40" fill="none" stroke="red" stroke-width="2"/>
<text x="326" y="501" font-size="12" fill="red">4.237m</text>
<rect x="323" y="449" width="41" height="41" fill="none" stroke="red" stroke-width="2"/>
<text x="325" y="502" font-size="12" fill="red">4.343m</text>
<rect x="140" y="448" width="12" height="13" fill="none" stroke="red" stroke-width="2"/>
<text x="142" y="473" font-size="12" fill="red">1.377m</text>
<rect x="113" y="448" width="24" height="15" fill="none" stroke="red" stroke-width="2"/>
<text x="115" y="475" font-size="12" fill="red">2.542m</text>
<rect x="158" y="438" width="12" height="11" fill="none" stroke="red" stroke-width="2"/>
<text x="160" y="461" font-size="12" fill="red">1.271m</text>
<rect x="148" y="438" width="12" height="11" fill="none" stroke="red" stroke-width="2"/>
<text x="150" y="461" font-size="12" fill="red">1.271m</text>
<rect x="139" y="438" width="11" height="11" fill="none" stroke="red" stroke-width="2"/>
<text x="141" y="461" font-size="12" fill="red">1.165m</text>
<rect x="129" y="438" width="11" height="11" fill="none" stroke="red" stroke-width="2"/>
<text x="131" y="461" font-size="12" fill="red">1.165m</text>
<rect x="119" y="438" width="11" height="11" fill="none" stroke="red" stroke-width="2"/>
<text x="121" y="461" font-size="12" fill="red">1.165m</text>
<rect x="109" y="438" width="11" height="11" fill="none" stroke="red" stroke-width="2"/>
<text x="111" y="461" font-size="12" fill="red">1.165m</text>
<rect x="99" y="438" width="11" height="11" fill="none" stroke="red" stroke-width="2"/>
<text x="101" y="461" font-size="12" fill="red">1.165m</text>
<rect x="89" y="438" width="11" height="11" fill="none" stroke="red" stroke-width="2"/>
<text x="91" y="461" font-size="12" fill="red">1.165m</text>
<rect x="79" y="438" width="11" height="11" fill="none" stroke="red" stroke-width="2"/>
<text x="81" y="461" font-size="12" fill="red">1.165m</text>
<rect x="217" y="429" width="11" height="11" fill="none" stroke="red" stroke-width="2"/>
<text x="219" y="452" font-size="12" fill="red">1.165m</text>
<rect x="217" y="419" width="11" height="11" fill="none" stroke="red" stroke-width="2"/>
<text x="219" y="442" font-size="12" fill="red">1.165m</text>
<rect x="217" y="409" width="11" height="11" fill="none" stroke="red" stroke-width="2"/>
<text x="219" y="432" font-size="12" fill="red">1.165m</text>
<rect x="217" y="399" width="11" height="11" fill="none" stroke="red" stroke-width="2"/>
<text x="219" y="422" font-size="12" fill="red">1.165m</text>
<rect x="217" y="379" width="11" height="12" fill="none" stroke="red" stroke-width="2"/>
<text x="219" y="403" font-size="12" fill="red">1.271m</text>
<rect x="381" y="377" width="26" height="214" fill="none" stroke="red" stroke-width="2"/>
<text x="383" y="603" font-size="12" fill="red">22.669m</text>
<rect x="348" y="341" width="55" height="24" fill="none" stroke="red" stroke-width="2"/>
<text x="350" y="377" font-size="12" fill="red">5.826m</text>
<rect x="338" y="337" width="12" height="32" fill="none" stroke="red" stroke-width="2"/>
<text x="340" y="381" font-size="12" fill="red">3.39m</text>
<rect x="388" y="322" width="19" height="16" fill="none" stroke="red" stroke-width="2"/>
<text x="390" y="350" font-size="12" fill="red">2.013m</text>
<rect x="331" y="308" width="39" height="14" fill="none" stroke="red" stroke-width="2"/>
<text x="333" y="334" font-size="12" fill="red">4.131m</text>
<rect x="300" y="296" width="12" height="13" fill="none" stroke="red" stroke-width="2"/>
<text x="302" y="321" font-size="12" fill="red">1.377m</text>
<rect x="333" y="285" width="24" height="15" fill="none" stroke="red" stroke-width="2"/>
<text x="335" y="312" font-size="12" fill="red">2.542m</text>
<rect x="329" y="281" width="59" height="25" fill="none" stroke="red" stroke-width="2"/>
<text x="331" y="318" font-size="12" fill="red">6.25m</text>
<rect x="351" y="253" width="31" height="15" fill="none" stroke="red" stroke-width="2"/>
<text x="353" y="280" font-size="12" fill="red">3.284m</text>
<rect x="346" y="144" width="43" height="18" fill="none" stroke="red" stroke-width="2"/>
<text x="348" y="174" font-size="12" fill="red">4.555m</text>
<rect x="218" y="106" width="100" height="271" fill="none" stroke="red" stroke-width="2"/>
<text x="220" y="389" font-size="12" fill="red">28.708m</text>
<rect x="362" y="95" width="26" height="11" fill="none" stroke="red" stroke-width="2"/>
<text x="364" y="118" font-size="12" fill="red">2.754m</text>
<rect x="367" y="49" width="27" height="14" fill="none" stroke="red" stroke-width="2"/>
<text x="369" y="75" font-size="12" fill="red">2.86m</text>
<rect x="262" y="39" width="149" height="49" fill="none" stroke="red" stroke-width="2"/>
<text x="264" y="100" font-size="12" fill="red">15.784m</text>
<text x="10" y="655" font-size="14" fill="#333">scale: 105.9322033898305 px->mm</text>
</svg>