<svg xmlns="http://www.w3.org/2000/svg" width="463" height="665"><image href="file:///mnt/data/7.1 2Д.png" x="0" y="0" width="463" height="665" /><rect x="367" y="49" width="27" height="14" fill="none" stroke="red" stroke-width="2"/><text x="369" y="75" font-size="14" fill="red">5.32</text><rect x="282" y="78" width="19" height="7" fill="none" stroke="red" stroke-width="2"/><text x="284" y="97" font-size="14" fill="red">1410</text><rect x="347" y="78" width="59" height="7" fill="none" stroke="red" stroke-width="2"/><text x="349" y="97" font-size="14" fill="red">700.640</text><rect x="287" y="139" width="18" height="8" fill="none" stroke="red" stroke-width="2"/><text x="289" y="159" font-size="14" fill="red">130</text><rect x="347" y="139" width="15" height="7" fill="none" stroke="red" stroke-width="2"/><text x="349" y="158" font-size="14" fill="red">700</text><rect x="332" y="161" width="18" height="7" fill="none" stroke="red" stroke-width="2"/><text x="334" y="180" font-size="14" fill="red">00</text><rect x="284" y="372" width="19" height="28" fill="none" stroke="red" stroke-width="2"/><text x="286" y="412" font-size="14" fill="red">1000</text><rect x="274" y="386" width="107" height="10" fill="none" stroke="red" stroke-width="2"/><text x="276" y="408" font-size="14" fill="red">2300</text><rect x="108" y="477" width="27" height="14" fill="none" stroke="red" stroke-width="2"/><text x="110" y="503" font-size="14" fill="red">188</text><rect x="130" y="518" width="14" height="9" fill="none" stroke="red" stroke-width="2"/><text x="132" y="539" font-size="14" fill="red">7</text><rect x="256" y="569" width="6" height="10" fill="none" stroke="red" stroke-width="2"/><text x="258" y="591" font-size="14" fill="red">3</text><rect x="344" y="581" width="18" height="7" fill="none" stroke="red" stroke-width="2"/><text x="346" y="600" font-size="14" fill="red">100</text><rect x="235" y="599" width="15" height="12" fill="none" stroke="red" stroke-width="2"/><text x="237" y="623" font-size="14" fill="red">40</text><rect x="357" y="599" width="37" height="14" fill="none" stroke="red" stroke-width="2"/><text x="359" y="625" font-size="14" fill="red">22.58</text><circle cx="23" cy="365" r="10" fill="none" stroke="lime" stroke-width="3"/><text x="37" y="369" font-size="16" fill="lime">Вход</text></svg>